<?xml version="1.0" encoding="utf-8"?>
<svg version="1.1" xmlns:xlink="http://www.w3.org/1999/xlink" width="25px" height="25px" xmlns="http://www.w3.org/2000/svg">
  <g transform="matrix(1 0 0 1 -1141 -16 )">
    <path d="M 1141 16  L 1166 16  L 1166 41  L 1141 41  L 1141 16  " fill-rule="nonzero" fill="#cccccc" stroke="none" />
    <path d="M 1143 18  L 1164 18  L 1164 39  L 1143 39  L 1143 18  " fill-rule="nonzero" fill="#ffffff" stroke="none" />
    <path d="M 1155.875 23.5  C 1154.825 23.5  1154 22.675  1154 21.625  C 1154 20.575  1154.825 19.75  1155.875 19.75  C 1156.925 19.75  1157.75 20.575  1157.75 21.625  C 1157.75 22.675  1156.925 23.5  1155.875 23.5  " fill-rule="nonzero" fill="#cccccc" stroke="none" />
    <path d="M 1144 39  L 1144 28  L 1149 23  L 1156 27  L 1160 26  L 1164 27  L 1164 39  L 1144 39  " fill-rule="nonzero" fill="#169bd5" stroke="none" />
  </g>
</svg>