<?xml version="1.0" encoding="utf-8"?>
<svg version="1.1" xmlns:xlink="http://www.w3.org/1999/xlink" width="30px" height="30px" xmlns="http://www.w3.org/2000/svg">
  <g transform="matrix(1 0 0 1 -910 -17 )">
    <path d="M 29.2929292929293 22.4242424242424  C 29.7643097643099 22.895622895623  30 23.4680134680135  30 24.1414141414141  C 30 24.8148148148148  29.7643097643099 25.3872053872053  29.2929292929293 25.8585858585859  L 25.8585858585857 29.2929292929293  C 25.3872053872054 29.7643097643097  24.8148148148148 30  24.1414141414141 30  C 23.4680134680136 30  22.8956228956228 29.7643097643097  22.4242424242424 29.2929292929293  L 15 21.8686868686869  L 7.57575757575759 29.2929292929293  C 7.10437710437715 29.7643097643097  6.53198653198654 30  5.85858585858589 30  C 5.18518518518498 30  4.61279461279463 29.7643097643097  4.14141414141432 29.2929292929293  L 0.707070707070662 25.8585858585859  C 0.235690235690221 25.3872053872053  0 24.8148148148148  0 24.1414141414141  C 0 23.4680134680135  0.235690235690221 22.895622895623  0.707070707070662 22.4242424242424  L 8.1313131313132 15  L 0.707070707070662 7.57575757575762  C 0.235690235690221 7.10437710437702  0 6.53198653198649  0 5.85858585858585  C 0 5.18518518518522  0.235690235690221 4.61279461279468  0.707070707070662 4.14141414141409  L 4.14141414141432 0.707070707070727  C 4.61279461279463 0.235690235690294  5.18518518518498 0  5.85858585858589 0  C 6.53198653198654 0  7.10437710437715 0.235690235690294  7.57575757575759 0.707070707070727  L 15 8.13131313131311  L 22.4242424242424 0.707070707070727  C 22.8956228956228 0.235690235690294  23.4680134680136 0  24.1414141414141 0  C 24.8148148148148 0  25.3872053872054 0.235690235690294  25.8585858585857 0.707070707070727  L 29.2929292929293 4.14141414141409  C 29.7643097643099 4.61279461279468  30 5.18518518518522  30 5.85858585858585  C 30 6.53198653198649  29.7643097643099 7.10437710437702  29.2929292929293 7.57575757575762  L 21.8686868686868 15  L 29.2929292929293 22.4242424242424  Z " fill-rule="nonzero" fill="#1abc9c" stroke="none" transform="matrix(1 0 0 1 910 17 )" />
  </g>
</svg>