<?xml version="1.0" encoding="utf-8"?>
<svg version="1.1" xmlns:xlink="http://www.w3.org/1999/xlink" width="335px" height="170px" xmlns="http://www.w3.org/2000/svg">
  <g transform="matrix(1 0 0 1 -20 -217 )">
    <path d="M 20.5 365.586206896552  C 20.5 365.586206896552  20.5 222  20.5 222  C 20.5 219.514718625761  22.5147186257614 217.5  25 217.5  C 25 217.5  350 217.5  350 217.5  C 352.485281374239 217.5  354.5 219.514718625761  354.5 222  C 354.5 222  354.5 365.586206896552  354.5 365.586206896552  C 354.5 368.07148827079  352.485281374239 370.086206896552  350 370.086206896552  C 350 370.086206896552  209.821095308584 370.086206896552  209.821095308584 370.086206896552  C 209.821095308584 370.086206896552  189.992375639096 386.359432004614  189.992375639096 386.359432004614  C 189.992375639096 386.359432004614  169.172219986133 370.086206896552  169.172219986133 370.086206896552  C 169.172219986133 370.086206896552  25 370.086206896552  25 370.086206896552  C 22.5147186257614 370.086206896552  20.5 368.07148827079  20.5 365.586206896552  Z " fill-rule="nonzero" fill="#ffffff" stroke="none" />
    <path d="M 20 365.586206896552  C 20 365.586206896552  20 222  20 222  C 20 219.238576250846  22.238576250846 217  25 217  C 25 217  350 217  350 217  C 352.761423749154 217  355 219.238576250846  355 222  C 355 222  355 365.586206896552  355 365.586206896552  C 355 368.347630645706  352.761423749154 370.586206896552  350 370.586206896552  C 350 370.586206896552  210 370.586206896552  210 370.586206896552  C 210 370.586206896552  190 387  190 387  C 190 387  169 370.586206896552  169 370.586206896552  C 169 370.586206896552  25 370.586206896552  25 370.586206896552  C 22.238576250846 370.586206896552  20 368.347630645706  20 365.586206896552  Z M 21 365.586206896552  C 21 367.795345895875  22.7908610006768 369.586206896552  25 369.586206896552  C 25 369.586206896552  169.344439972267 369.586206896552  169.344439972267 369.586206896552  C 169.344439972267 369.586206896552  189.984751278192 385.718864009229  189.984751278192 385.718864009229  C 189.984751278192 385.718864009229  209.642190617168 369.586206896552  209.642190617168 369.586206896552  C 209.642190617168 369.586206896552  350 369.586206896552  350 369.586206896552  C 352.209138999323 369.586206896552  354 367.795345895875  354 365.586206896552  C 354 365.586206896552  354 222  354 222  C 354 219.790861000677  352.209138999323 218  350 218  C 350 218  25 218  25 218  C 22.7908610006768 218  21 219.790861000677  21 222  C 21 222  21 365.586206896552  21 365.586206896552  Z " fill-rule="nonzero" fill="#e4e4e4" stroke="none" />
  </g>
</svg>