<?xml version="1.0" encoding="utf-8"?>
<svg version="1.1" xmlns:xlink="http://www.w3.org/1999/xlink" width="47px" height="50px" xmlns="http://www.w3.org/2000/svg">
  <g transform="matrix(1 0 0 1 -614 -10 )">
    <path d="M 614 10  L 661 10  L 661 60  L 614 60  L 614 10  " fill-rule="nonzero" fill="#cccccc" stroke="none" />
    <path d="M 617 13  L 658 13  L 658 57  L 617 57  L 617 13  " fill-rule="nonzero" fill="#ffffff" stroke="none" />
    <path d="M 641.965 24.55  C 639.991 24.55  638.44 22.999  638.44 21.025  C 638.44 19.051  639.991 17.5  641.965 17.5  C 643.939 17.5  645.49 19.051  645.49 21.025  C 645.49 22.999  643.939 24.55  641.965 24.55  " fill-rule="nonzero" fill="#cccccc" stroke="none" />
    <path d="M 618 56  L 618 32.9  L 627.75 22.4  L 641.4 30.8  L 649.2 28.7  L 657 30.8  L 657 56  L 618 56  " fill-rule="nonzero" fill="#169bd5" stroke="none" />
  </g>
</svg>