<?xml version="1.0" encoding="utf-8"?>
<svg version="1.1" xmlns:xlink="http://www.w3.org/1999/xlink" width="50px" height="50px" xmlns="http://www.w3.org/2000/svg">
  <g transform="matrix(1 0 0 1 -637 -55 )">
    <path d="M 637 55  L 687 55  L 687 105  L 637 105  L 637 55  " fill-rule="nonzero" fill="#cccccc" stroke="none" />
    <path d="M 641 59  L 683 59  L 683 101  L 641 101  L 641 59  " fill-rule="nonzero" fill="#ffffff" stroke="none" />
    <path d="M 666.75 70  C 664.65 70  663 68.35  663 66.25  C 663 64.15  664.65 62.5  666.75 62.5  C 668.85 62.5  670.5 64.15  670.5 66.25  C 670.5 68.35  668.85 70  666.75 70  " fill-rule="nonzero" fill="#cccccc" stroke="none" />
    <path d="M 643 100  L 643 78.55  L 652.75 68.8  L 666.4 76.6  L 674.2 74.65  L 682 76.6  L 682 100  L 643 100  " fill-rule="nonzero" fill="#169bd5" stroke="none" />
  </g>
</svg>