<?xml version="1.0" encoding="utf-8"?>
<svg version="1.1" xmlns:xlink="http://www.w3.org/1999/xlink" width="20px" height="20px" xmlns="http://www.w3.org/2000/svg">
  <g transform="matrix(1 0 0 1 -416 -20 )">
    <path d="M 19.5286195286196 14.9494949494949  C 19.8428731762066 15.263748597082  20 15.645342312009  20 16.0942760942761  C 20 16.5432098765432  19.8428731762066 16.9248035914702  19.5286195286196 17.2390572390573  L 17.2390572390571 19.5286195286195  C 16.9248035914702 19.8428731762065  16.5432098765432 20  16.0942760942761 20  C 15.6453423120091 20  15.2637485970819 19.8428731762065  14.9494949494949 19.5286195286195  L 10 14.5791245791246  L 5.05050505050506 19.5286195286195  C 4.7362514029181 19.8428731762065  4.35465768799103 20  3.90572390572393 20  C 3.45679012345665 20  3.07519640852976 19.8428731762065  2.76094276094288 19.5286195286195  L 0.471380471380441 17.2390572390573  C 0.15712682379348 16.9248035914702  0 16.5432098765432  0 16.0942760942761  C 0 15.645342312009  0.15712682379348 15.263748597082  0.471380471380441 14.9494949494949  L 5.42087542087547 10  L 0.471380471380441 5.05050505050508  C 0.15712682379348 4.73625140291801  0 4.354657687991  0 3.9057239057239  C 0 3.45679012345681  0.15712682379348 3.07519640852979  0.471380471380441 2.76094276094272  L 2.76094276094288 0.471380471380485  C 3.07519640852976 0.15712682379353  3.45679012345665 0  3.90572390572393 0  C 4.35465768799103 0  4.7362514029181 0.15712682379353  5.05050505050506 0.471380471380485  L 10 5.42087542087541  L 14.9494949494949 0.471380471380485  C 15.2637485970819 0.15712682379353  15.6453423120091 0  16.0942760942761 0  C 16.5432098765432 0  16.9248035914702 0.15712682379353  17.2390572390571 0.471380471380485  L 19.5286195286196 2.76094276094272  C 19.8428731762066 3.07519640852979  20 3.45679012345681  20 3.9057239057239  C 20 4.354657687991  19.8428731762066 4.73625140291801  19.5286195286196 5.05050505050508  L 14.5791245791245 10  L 19.5286195286196 14.9494949494949  Z " fill-rule="nonzero" fill="#1abc9c" stroke="none" transform="matrix(1 0 0 1 416 20 )" />
  </g>
</svg>