<?xml version="1.0" encoding="utf-8"?>
<svg version="1.1" xmlns:xlink="http://www.w3.org/1999/xlink" width="10px" height="10px" xmlns="http://www.w3.org/2000/svg">
  <g transform="matrix(1 0 0 1 -1146 -35 )">
    <path d="M 1146 35  L 1156 35  L 1156 45  L 1146 45  L 1146 35  " fill-rule="nonzero" fill="#cccccc" stroke="none" />
    <path d="M 1147 36  L 1155 36  L 1155 44  L 1147 44  L 1147 36  " fill-rule="nonzero" fill="#ffffff" stroke="none" />
    <path d="M 1151.95 38  C 1151.53 38  1151.2 37.67  1151.2 37.25  C 1151.2 36.83  1151.53 36.5  1151.95 36.5  C 1152.37 36.5  1152.7 36.83  1152.7 37.25  C 1152.7 37.67  1152.37 38  1151.95 38  " fill-rule="nonzero" fill="#cccccc" stroke="none" />
    <path d="M 1148 44  L 1148 40.15  L 1149.75 38.4  L 1152.2 39.8  L 1153.6 39.45  L 1155 39.8  L 1155 44  L 1148 44  " fill-rule="nonzero" fill="#169bd5" stroke="none" />
  </g>
</svg>