<?xml version="1.0" encoding="utf-8"?>
<svg version="1.1" xmlns:xlink="http://www.w3.org/1999/xlink" width="13px" height="12px" xmlns="http://www.w3.org/2000/svg">
  <g transform="matrix(1 0 0 1 -489 -20 )">
    <path d="M 12.6936026936027 8.96969696969695  C 12.8978675645343 9.15824915824919  13 9.3872053872054  13 9.65656565656566  C 13 9.92592592592591  12.8978675645343 10.1548821548821  12.6936026936027 10.3434343434344  L 11.2053872053871 11.7171717171717  C 11.0011223344557 11.9057239057239  10.7530864197531 12  10.4612794612794 12  C 10.1694725028059 12  9.92143658810323 11.9057239057239  9.71717171717171 11.7171717171717  L 6.5 8.74747474747476  L 3.28282828282829 11.7171717171717  C 3.07856341189677 11.9057239057239  2.83052749719417 12  2.53872053872055 12  C 2.24691358024683 12  1.99887766554434 11.9057239057239  1.79461279461287 11.7171717171717  L 0.306397306397287 10.3434343434344  C 0.102132435465762 10.1548821548821  0 9.92592592592591  0 9.65656565656566  C 0 9.3872053872054  0.102132435465762 9.15824915824919  0.306397306397287 8.96969696969695  L 3.52356902356905 6  L 0.306397306397287 3.03030303030305  C 0.102132435465762 2.84175084175081  0 2.6127946127946  0 2.34343434343434  C 0 2.07407407407409  0.102132435465762 1.84511784511787  0.306397306397287 1.65656565656563  L 1.79461279461287 0.282828282828291  C 1.99887766554434 0.0942760942761177  2.24691358024683 0  2.53872053872055 0  C 2.83052749719417 0  3.07856341189677 0.0942760942761177  3.28282828282829 0.282828282828291  L 6.5 3.25252525252524  L 9.71717171717171 0.282828282828291  C 9.92143658810323 0.0942760942761177  10.1694725028059 0  10.4612794612794 0  C 10.7530864197531 0  11.0011223344557 0.0942760942761177  11.2053872053871 0.282828282828291  L 12.6936026936027 1.65656565656563  C 12.8978675645343 1.84511784511787  13 2.07407407407409  13 2.34343434343434  C 13 2.6127946127946  12.8978675645343 2.84175084175081  12.6936026936027 3.03030303030305  L 9.47643097643095 6  L 12.6936026936027 8.96969696969695  Z " fill-rule="nonzero" fill="#cccccc" stroke="none" transform="matrix(1 0 0 1 489 20 )" />
  </g>
</svg>