<?xml version="1.0" encoding="utf-8"?>
<svg version="1.1" xmlns:xlink="http://www.w3.org/1999/xlink" width="85px" height="85px" xmlns="http://www.w3.org/2000/svg">
  <defs>
    <filter x="168px" y="169px" width="85px" height="85px" filterUnits="userSpaceOnUse" id="filter51">
      <feOffset dx="0" dy="6" in="SourceAlpha" result="shadowOffsetInner" />
      <feGaussianBlur stdDeviation="5" in="shadowOffsetInner" result="shadowGaussian" />
      <feComposite in2="shadowGaussian" operator="atop" in="SourceAlpha" result="shadowComposite" />
      <feColorMatrix type="matrix" values="0 0 0 0 0.949019607843137  0 0 0 0 0.949019607843137  0 0 0 0 0.949019607843137  0 0 0 1 0  " in="shadowComposite" />
    </filter>
    <g id="widget52">
      <path d="M 65 32.5  C 65 50.4497499859768  50.4497499859768 65  32.5 65  C 14.5502500140232 65  0 50.4497499859768  0 32.5  C 0 14.5502500140232  14.5502500140232 0  32.5 0  C 50.4497499859768 0  65 14.5502500140232  65 32.5  Z M 32.5 58.4999999542969  C 46.8594034703595 58.4999999542969  58.4999999542969 46.8594034703595  58.4999999542969 32.5  C 58.4999999542969 18.1405965296405  46.8594034703595 6.50000004570312  32.5 6.50000004570312  C 18.1405965296405 6.50000004570312  6.50000004570313 18.1405965296405  6.50000004570313 32.5  C 6.50000004570313 46.8594034703595  18.1405965296405 58.4999999542969  32.5 58.4999999542969  Z M 35.7500000228516 32.5  L 35.7500000228516 35.7500000228516  L 45.5000000152344 35.7500000228516  L 45.5000000152344 42.2499999923828  L 35.7500000228516 42.2499999923828  L 35.7500000228516 48.7499999619141  L 29.2499999771484 48.7499999619141  L 29.2499999771484 42.2499999923828  L 19.4999999847656 42.2499999923828  L 19.4999999847656 35.7500000228516  L 29.2499999771484 35.7500000228516  L 29.2499999771484 32.5  L 19.4999999847656 32.5  L 19.4999999847656 26.0000000304687  L 27.9044999781996 26.0000000304687  L 21.0080000343688 19.1067500358541  L 25.6100000307734 14.5079999886656  L 32.5 21.4045000086684  L 39.3932499946146 14.5079999886656  L 43.9919999656312 19.1067500358541  L 37.0955000218004 26.0000000304688  L 45.5000000152344 26.0000000304688  L 45.5000000152344 32.5  L 35.7500000228516 32.5  Z " fill-rule="nonzero" fill="#66e88d" stroke="none" transform="matrix(1 0 0 1 178 173 )" />
    </g>
  </defs>
  <g transform="matrix(1 0 0 1 -168 -169 )">
    <use xlink:href="#widget52" filter="url(#filter51)" />
    <use xlink:href="#widget52" />
  </g>
</svg>