<?xml version="1.0" encoding="utf-8"?>
<svg version="1.1" xmlns:xlink="http://www.w3.org/1999/xlink" width="9px" height="8px" xmlns="http://www.w3.org/2000/svg">
  <defs>
    <mask fill="white" id="clip43">
      <path d="M 0 4  C 0 6.2091389992  2.0147186259 8  4.5 8  C 6.9852813741 8  9 6.2091389992  9 4  C 9 1.7908610008  6.9852813741 0  4.5 0  C 2.0147186259 0  0 1.7908610008  0 4  Z " fill-rule="evenodd" />
    </mask>
  </defs>
  <g transform="matrix(1 0 0 1 -1326 -534 )">
    <path d="M 0 4  C 0 6.2091389992  2.0147186259 8  4.5 8  C 6.9852813741 8  9 6.2091389992  9 4  C 9 1.7908610008  6.9852813741 0  4.5 0  C 2.0147186259 0  0 1.7908610008  0 4  Z " fill-rule="nonzero" fill="#f6bd16" stroke="none" transform="matrix(1 0 0 1 1326 534 )" />
    <path d="M 0 4  C 0 6.2091389992  2.0147186259 8  4.5 8  C 6.9852813741 8  9 6.2091389992  9 4  C 9 1.7908610008  6.9852813741 0  4.5 0  C 2.0147186259 0  0 1.7908610008  0 4  Z " stroke-width="2" stroke="#797979" fill="none" transform="matrix(1 0 0 1 1326 534 )" mask="url(#clip43)" />
  </g>
</svg>