<?xml version="1.0" encoding="utf-8"?>
<svg version="1.1" xmlns:xlink="http://www.w3.org/1999/xlink" width="22px" height="51px" xmlns="http://www.w3.org/2000/svg">
  <defs>
    <mask fill="white" id="clip47">
      <path d="M 20.5166758493271 0.00669817840023401  C 20.5166758493271 0.00669817840023401  22 0  22 0  L 21.9992702794619 50.118305481596  C 21.9992702794619 50.118305481596  20.8673398458136 50.1261342202627  20.8673398458136 50.1261342202627  C 17.1404013571645 50.1730890888142  13.4725178849652 50.4306095341183  9.87893716809824 50.8855315850416  C 9.87893716809824 50.8855315850416  9.03782581190926 51  9.03782581190926 51  L 0 1.48456462302698  C 6.74389653565353 0.568344029929862  13.5988982749384 0.0691811389994171  20.5166758493271 0.00669817840023401  Z " fill-rule="evenodd" />
    </mask>
  </defs>
  <g transform="matrix(1 0 0 1 -1127 -382 )">
    <path d="M 20.5166758493271 0.00669817840023401  C 20.5166758493271 0.00669817840023401  22 0  22 0  L 21.9992702794619 50.118305481596  C 21.9992702794619 50.118305481596  20.8673398458136 50.1261342202627  20.8673398458136 50.1261342202627  C 17.1404013571645 50.1730890888142  13.4725178849652 50.4306095341183  9.87893716809824 50.8855315850416  C 9.87893716809824 50.8855315850416  9.03782581190926 51  9.03782581190926 51  L 0 1.48456462302698  C 6.74389653565353 0.568344029929862  13.5988982749384 0.0691811389994171  20.5166758493271 0.00669817840023401  Z " fill-rule="nonzero" fill="#f6bd16" stroke="none" transform="matrix(1 0 0 1 1127 382 )" />
    <path d="M 20.5166758493271 0.00669817840023401  C 20.5166758493271 0.00669817840023401  22 0  22 0  L 21.9992702794619 50.118305481596  C 21.9992702794619 50.118305481596  20.8673398458136 50.1261342202627  20.8673398458136 50.1261342202627  C 17.1404013571645 50.1730890888142  13.4725178849652 50.4306095341183  9.87893716809824 50.8855315850416  C 9.87893716809824 50.8855315850416  9.03782581190926 51  9.03782581190926 51  L 0 1.48456462302698  C 6.74389653565353 0.568344029929862  13.5988982749384 0.0691811389994171  20.5166758493271 0.00669817840023401  Z " stroke-width="2" stroke="#797979" fill="none" transform="matrix(1 0 0 1 1127 382 )" mask="url(#clip47)" />
  </g>
</svg>