<?xml version="1.0" encoding="utf-8"?>
<svg version="1.1" xmlns:xlink="http://www.w3.org/1999/xlink" width="111px" height="76px" xmlns="http://www.w3.org/2000/svg">
  <defs>
    <mask fill="white" id="clip46">
      <path d="M 109.712634956785 0.00484978781374327  C 109.712634956785 0.00484978781374327  111 0  111 0  L 110.999204198596 49.9959310989436  C 110.999204198596 49.9959310989436  109.705675384146 50.0055701702381  109.705675384146 50.0055701702381  C 83.9282421592109 50.358908085266  60.9350556611311 60.3953595565102  45.5934083156877 76  C 45.5934083156877 76  0 44.131952797871  0 44.131952797871  C 27.0940664564863 16.4601723977967  67.2524725574144 0.324790252676147  109.712634956785 0.00484978781374327  Z " fill-rule="evenodd" />
    </mask>
  </defs>
  <g transform="matrix(1 0 0 1 -1039 -382 )">
    <path d="M 109.712634956785 0.00484978781374327  C 109.712634956785 0.00484978781374327  111 0  111 0  L 110.999204198596 49.9959310989436  C 110.999204198596 49.9959310989436  109.705675384146 50.0055701702381  109.705675384146 50.0055701702381  C 83.9282421592109 50.358908085266  60.9350556611311 60.3953595565102  45.5934083156877 76  C 45.5934083156877 76  0 44.131952797871  0 44.131952797871  C 27.0940664564863 16.4601723977967  67.2524725574144 0.324790252676147  109.712634956785 0.00484978781374327  Z " fill-rule="nonzero" fill="#5d7092" stroke="none" transform="matrix(1 0 0 1 1039 382 )" />
    <path d="M 109.712634956785 0.00484978781374327  C 109.712634956785 0.00484978781374327  111 0  111 0  L 110.999204198596 49.9959310989436  C 110.999204198596 49.9959310989436  109.705675384146 50.0055701702381  109.705675384146 50.0055701702381  C 83.9282421592109 50.358908085266  60.9350556611311 60.3953595565102  45.5934083156877 76  C 45.5934083156877 76  0 44.131952797871  0 44.131952797871  C 27.0940664564863 16.4601723977967  67.2524725574144 0.324790252676147  109.712634956785 0.00484978781374327  Z " stroke-width="2" stroke="#797979" fill="none" transform="matrix(1 0 0 1 1039 382 )" mask="url(#clip46)" />
  </g>
</svg>