<?xml version="1.0" encoding="utf-8"?>
<svg version="1.1" xmlns:xlink="http://www.w3.org/1999/xlink" width="249px" height="199px" xmlns="http://www.w3.org/2000/svg">
  <defs>
    <mask fill="white" id="clip45">
      <path d="M 31.5817204480148 1.5243245556279  C 31.5817204480148 1.5243245556279  33.0520551478229 0  33.0520551478229 0  C 33.0520551478229 0  78.6303144840749 31.8203650054522  78.6303144840749 31.8203650054522  C 66.3719475195532 44.2741493975347  59.0004341406279 60.2797704319942  59.0004341406279 77.7391939821501  C 59.0004341406279 117.439729402348  97.114877761357 149.623372269844  144.13142667149 149.623372269844  C 168.6669924295 149.623372269844  190.778274808956 140.858898257403  206.313799948558 126.835433703703  C 206.313799948558 126.835433703703  249 160.661641005954  249 160.661641005954  C 195.758575262163 208.506750281835  107.119432238097 212.034280180953  48.7786961326284 168.629753193599  C -8.97863261178588 125.659271476118  -16.3799326114109 52.0617902439182  31.5817204480148 1.5243245556279  Z " fill-rule="evenodd" />
    </mask>
  </defs>
  <g transform="matrix(1 0 0 1 -1006 -426 )">
    <path d="M 31.5817204480148 1.5243245556279  C 31.5817204480148 1.5243245556279  33.0520551478229 0  33.0520551478229 0  C 33.0520551478229 0  78.6303144840749 31.8203650054522  78.6303144840749 31.8203650054522  C 66.3719475195532 44.2741493975347  59.0004341406279 60.2797704319942  59.0004341406279 77.7391939821501  C 59.0004341406279 117.439729402348  97.114877761357 149.623372269844  144.13142667149 149.623372269844  C 168.6669924295 149.623372269844  190.778274808956 140.858898257403  206.313799948558 126.835433703703  C 206.313799948558 126.835433703703  249 160.661641005954  249 160.661641005954  C 195.758575262163 208.506750281835  107.119432238097 212.034280180953  48.7786961326284 168.629753193599  C -8.97863261178588 125.659271476118  -16.3799326114109 52.0617902439182  31.5817204480148 1.5243245556279  Z " fill-rule="nonzero" fill="#5ad8a6" stroke="none" transform="matrix(1 0 0 1 1006 426 )" />
    <path d="M 31.5817204480148 1.5243245556279  C 31.5817204480148 1.5243245556279  33.0520551478229 0  33.0520551478229 0  C 33.0520551478229 0  78.6303144840749 31.8203650054522  78.6303144840749 31.8203650054522  C 66.3719475195532 44.2741493975347  59.0004341406279 60.2797704319942  59.0004341406279 77.7391939821501  C 59.0004341406279 117.439729402348  97.114877761357 149.623372269844  144.13142667149 149.623372269844  C 168.6669924295 149.623372269844  190.778274808956 140.858898257403  206.313799948558 126.835433703703  C 206.313799948558 126.835433703703  249 160.661641005954  249 160.661641005954  C 195.758575262163 208.506750281835  107.119432238097 212.034280180953  48.7786961326284 168.629753193599  C -8.97863261178588 125.659271476118  -16.3799326114109 52.0617902439182  31.5817204480148 1.5243245556279  Z " stroke-width="2" stroke="#797979" fill="none" transform="matrix(1 0 0 1 1006 426 )" mask="url(#clip45)" />
  </g>
</svg>