<?xml version="1.0" encoding="utf-8"?>
<svg version="1.1" xmlns:xlink="http://www.w3.org/1999/xlink" width="144px" height="205px" xmlns="http://www.w3.org/2000/svg">
  <defs>
    <mask fill="white" id="clip48">
      <path d="M 0 49.9863335404165  C 0 49.9863335404165  0 0  0 0  C 57.4188781878939 0  109.349893658611 28.8289642605646  132.153680013548 73.363743872118  C 154.729428504936 117.453175687556  144.485337360977 168.592377946685  106.13969640859 203.933903749438  C 106.13969640859 203.933903749438  104.969110514009 205  104.969110514009 205  C 104.969110514009 205  62.2894344750794 171.127556199825  62.2894344750794 171.127556199825  C 76.5215708886702 158.261320488096  85.234037211467 140.974374437102  85.234037211467 121.966647753137  C 85.234037211467 82.6105508985857  47.8828167828943 50.63161389178  1.521477638104 49.9959707613294  C 1.521477638104 49.9959707613294  0 49.9863335404165  0 49.9863335404165  Z " fill-rule="evenodd" />
    </mask>
  </defs>
  <g transform="matrix(1 0 0 1 -1150 -382 )">
    <path d="M 0 49.9863335404165  C 0 49.9863335404165  0 0  0 0  C 57.4188781878939 0  109.349893658611 28.8289642605646  132.153680013548 73.363743872118  C 154.729428504936 117.453175687556  144.485337360977 168.592377946685  106.13969640859 203.933903749438  C 106.13969640859 203.933903749438  104.969110514009 205  104.969110514009 205  C 104.969110514009 205  62.2894344750794 171.127556199825  62.2894344750794 171.127556199825  C 76.5215708886702 158.261320488096  85.234037211467 140.974374437102  85.234037211467 121.966647753137  C 85.234037211467 82.6105508985857  47.8828167828943 50.63161389178  1.521477638104 49.9959707613294  C 1.521477638104 49.9959707613294  0 49.9863335404165  0 49.9863335404165  Z " fill-rule="nonzero" fill="#ffffff" stroke="none" fill-opacity="0" transform="matrix(1 0 0 1 1150 382 )" />
    <path d="M 0 49.9863335404165  C 0 49.9863335404165  0 0  0 0  C 57.4188781878939 0  109.349893658611 28.8289642605646  132.153680013548 73.363743872118  C 154.729428504936 117.453175687556  144.485337360977 168.592377946685  106.13969640859 203.933903749438  C 106.13969640859 203.933903749438  104.969110514009 205  104.969110514009 205  C 104.969110514009 205  62.2894344750794 171.127556199825  62.2894344750794 171.127556199825  C 76.5215708886702 158.261320488096  85.234037211467 140.974374437102  85.234037211467 121.966647753137  C 85.234037211467 82.6105508985857  47.8828167828943 50.63161389178  1.521477638104 49.9959707613294  C 1.521477638104 49.9959707613294  0 49.9863335404165  0 49.9863335404165  Z " stroke-width="2" stroke="#000000" fill="none" stroke-opacity="0.850980392156863" transform="matrix(1 0 0 1 1150 382 )" mask="url(#clip48)" />
  </g>
</svg>